<svg width="24" height="24" viewBox="0 0 24 24" fill="none" xmlns="http://www.w3.org/2000/svg">
<path fill-rule="evenodd" clip-rule="evenodd" d="M14.625 2.75C14.0727 2.75 13.625 3.19772 13.625 3.75V7.25H9.375C8.82272 7.25 8.375 7.69772 8.375 8.25V11.75H4.125C3.57272 11.75 3.125 12.1977 3.125 12.75V18.5H2.625C2.07272 18.5 1.625 18.9477 1.625 19.5C1.625 20.0523 2.07272 20.5 2.625 20.5H4.125H9.375H14.625H19.875H21.375C21.9273 20.5 22.375 20.0523 22.375 19.5C22.375 18.9477 21.9273 18.5 21.375 18.5H20.875V3.75C20.875 3.19772 20.4273 2.75 19.875 2.75H14.625ZM18.875 18.5V4.75H15.625V8.25V18.5H18.875ZM13.625 18.5V9.25H10.375V12.75V18.5H13.625ZM5.125 13.75H8.375V18.5H5.125V13.75Z" fill="#F6C64D"/>
</svg>
