<svg width="144" height="92" viewBox="0 0 144 92" fill="none" xmlns="http://www.w3.org/2000/svg">
<path fill-rule="evenodd" clip-rule="evenodd" d="M23.4098 0.265947C10.0857 2.55493 0.00148347 14.5113 0 28.0205C0 29.6415 1.25724 39.1735 2.97731 50.5921C6.18828 71.9081 6.63888 73.8428 9.48602 78.5299C12.5038 83.498 17.5779 87.7707 23.0215 89.9292C27.9555 91.8851 29.2109 92.0212 42.0937 91.9979C55.0284 91.9741 56.4373 91.7932 61.6569 89.4816L63.7894 88.5369V86.6622C63.7894 85.6312 63.7375 84.7875 63.6744 84.7875C63.611 84.7875 62.4012 85.3571 60.9856 86.0533C55.9786 88.5154 54.8927 88.6664 42.0937 88.6742C28.9609 88.6827 27.8969 88.5388 22.7259 86.0536C16.04 82.8404 10.836 76.4285 9.30207 69.5145C9.10662 68.6337 7.66581 59.4017 6.10038 48.9989C3.57997 32.2528 3.27698 29.6808 3.45536 26.5615C4.04059 16.3423 10.7625 7.69514 20.6372 4.45859L23.9212 3.38234H41.7228C59.3256 3.38234 59.5556 3.39198 62.3059 4.2472C66.5935 5.58009 69.5556 7.40475 72.9053 10.7763C78.1645 16.07 80.3515 21.8359 80.033 29.5677L79.8664 33.6079H81.4241C82.8719 33.6079 82.998 33.5263 83.2135 32.449C83.3411 31.8115 83.4453 29.752 83.4453 27.8725C83.4453 17.094 76.8913 6.93969 67.0567 2.48039C61.7937 0.0938652 61.9295 0.107958 42.8354 0.0111616C33.2485 -0.0374219 24.5068 0.0771759 23.4098 0.265947ZM29.8551 11.35C22.1081 12.9781 15.8416 18.5856 13.2707 26.1906C12.4911 28.4963 12.45 29.2937 12.3224 44.4973C12.2074 58.1422 12.2749 60.8199 12.7979 63.4007C14.4693 71.6484 20.0728 77.6858 28.3876 80.1973C30.2249 80.7521 32.0021 80.8671 38.9413 80.8789L47.2858 80.8934L47.3997 79.3172L47.5139 77.741L40.5387 77.7381C32.1997 77.7347 29.5847 77.3717 26.1464 75.7387C21.6931 73.624 18.6019 70.2299 16.6545 65.317C15.783 63.1181 15.7711 62.9075 15.652 47.5191C15.5723 37.2009 15.671 31.1458 15.945 29.5729C17.1629 22.5787 22.6021 16.6875 29.4998 14.8907C32.6418 14.0722 50.8039 14.0722 53.9458 14.8907C61.8071 16.9382 67.8689 24.5443 67.8689 32.3603C67.8689 33.5916 67.8908 33.6079 69.5378 33.6079H71.2067V31.9984C71.2067 29.646 69.9194 24.9994 68.5383 22.3655C66.9755 19.3856 62.8032 15.2148 59.82 13.6501C55.3091 11.2844 55.0299 11.2436 42.65 11.1364C36.4287 11.0826 30.671 11.1787 29.8551 11.35ZM34.0214 22.4979C32.3132 22.9207 29.9004 24.1267 28.2544 25.3795C26.5863 26.6497 24.2673 29.9627 23.5741 32.0666C22.8984 34.1168 20.0272 52.8826 20.0272 55.2491C20.0272 58.9585 22.3844 63.8161 25.4047 66.331C26.8177 67.5073 30.2479 69.2512 30.5516 68.947C30.6784 68.8202 30.7823 68.0755 30.7823 67.2915C30.7823 65.9794 30.6343 65.7754 28.9142 64.7169C25.6265 62.6942 23.3649 58.7668 23.3649 55.0811C23.3649 54.3186 24.037 49.217 24.8581 43.7441C26.5203 32.6685 27.0536 31.0089 29.7279 28.5927C32.6103 25.9889 33.8638 25.6514 41.1688 25.5138C47.1482 25.401 47.8354 25.4567 49.8726 26.2188C52.4694 27.1905 55.6229 30.0988 56.3954 32.2342C56.8727 33.5549 56.9595 33.6079 58.6458 33.6079C60.3874 33.6079 60.3978 33.6005 60.1044 32.5777C59.0464 28.8883 55.8554 25.302 52.011 23.4807L49.511 22.2965L42.4646 22.2242C38.589 22.1845 34.7899 22.3076 34.0214 22.4979ZM40.4226 38.7563C37.6796 39.6479 35.3072 41.7166 34.3244 44.073C34.0081 44.8315 33.7492 46.4243 33.7492 47.6126C33.7492 49.3909 33.9625 50.1293 34.9545 51.7834C36.692 54.6809 38.951 55.9938 42.5072 56.1737C45.4471 56.322 47.2454 55.7197 49.511 53.8272L50.6236 52.8982L49.583 51.9684C48.3751 50.8892 47.1675 50.7931 45.519 51.6454C40.9618 54.0023 35.9577 49.1472 38.5764 44.9097C39.9156 42.7431 43.1039 41.8797 45.3811 43.0673C47.0021 43.9128 48.6847 43.7712 49.6864 42.7049L50.5472 41.7885L49.6583 41.0434C47.2332 39.01 42.9241 37.943 40.4226 38.7563ZM54.3942 38.6766C54.2581 38.8123 54.1469 42.8177 54.1469 47.5774V56.2308H56.3721H58.5972V53.4493V50.6678H61.1384C63.1674 50.6678 63.9318 50.4979 64.9309 49.8244C68.5821 47.3641 68.9118 42.9048 65.6456 40.1567C65.0199 39.6301 63.8873 39.027 63.1289 38.8164C61.6065 38.3936 54.7862 38.2842 54.3942 38.6766ZM77.1383 38.7563C74.3954 39.6479 72.023 41.7166 71.0402 44.073C70.7238 44.8315 70.465 46.4243 70.465 47.6126C70.465 49.3909 70.6782 50.1293 71.6703 51.7834C73.3963 54.662 75.6716 55.9942 79.1625 56.1703C82.046 56.3161 84.0105 55.663 86.2268 53.8224L87.3394 52.8982L86.2987 51.9684C85.0908 50.8892 83.8833 50.7931 82.2348 51.6454C77.6776 54.0023 72.6735 49.1472 75.2922 44.9097C76.6314 42.7431 79.8197 41.8797 82.0968 43.0673C83.7179 43.9128 85.4005 43.7712 86.4022 42.7049L87.263 41.7885L86.374 41.0434C83.9489 39.01 79.6398 37.943 77.1383 38.7563ZM62.9312 43.315C63.4029 43.7585 63.7894 44.4142 63.7894 44.7718C63.7894 45.871 62.0118 46.9591 60.2161 46.9591H58.5972V44.7339V42.5087H60.3351C61.6087 42.5087 62.3018 42.7242 62.9312 43.315Z" fill="#F5C74D"/>
<path d="M55.6765 67.0895C55.0798 67.0895 54.5279 66.9925 54.0207 66.7986C53.521 66.5972 53.0846 66.3176 52.7117 65.9595C52.3463 65.5941 52.0591 65.1689 51.8503 64.6841C51.6414 64.1993 51.537 63.6661 51.537 63.0843C51.537 62.5025 51.6414 61.9693 51.8503 61.4845C52.0591 60.9997 52.35 60.5783 52.7229 60.2203C53.0958 59.8548 53.5321 59.5751 54.0319 59.3812C54.539 59.1798 55.091 59.0791 55.6876 59.0791C56.2918 59.0791 56.8474 59.1835 57.3546 59.3924C57.8692 59.5937 58.3056 59.8958 58.6636 60.2986L57.9364 61.0034C57.638 60.6901 57.3024 60.4589 56.9295 60.3098C56.5566 60.1531 56.1575 60.0748 55.7324 60.0748C55.2923 60.0748 54.8821 60.1494 54.5017 60.2986C54.1288 60.4477 53.8044 60.6566 53.5284 60.9251C53.2525 61.1936 53.0362 61.5143 52.8795 61.8872C52.7304 62.2527 52.6558 62.6517 52.6558 63.0843C52.6558 63.5169 52.7304 63.9197 52.8795 64.2926C53.0362 64.658 53.2525 64.975 53.5284 65.2435C53.8044 65.512 54.1288 65.7209 54.5017 65.87C54.8821 66.0192 55.2923 66.0938 55.7324 66.0938C56.1575 66.0938 56.5566 66.0192 56.9295 65.87C57.3024 65.7134 57.638 65.4747 57.9364 65.154L58.6636 65.8589C58.3056 66.2616 57.8692 66.5674 57.3546 66.7762C56.8474 66.9851 56.2881 67.0895 55.6765 67.0895ZM62.3913 67.0671C61.7946 67.0671 61.265 66.9366 60.8026 66.6756C60.3402 66.4145 59.9747 66.0565 59.7062 65.6015C59.4377 65.1391 59.3035 64.617 59.3035 64.0353C59.3035 63.446 59.4377 62.9239 59.7062 62.469C59.9747 62.014 60.3402 61.6597 60.8026 61.4062C61.265 61.1451 61.7946 61.0146 62.3913 61.0146C62.9805 61.0146 63.5063 61.1451 63.9687 61.4062C64.4386 61.6597 64.8041 62.014 65.0651 62.469C65.3336 62.9165 65.4679 63.4386 65.4679 64.0353C65.4679 64.6245 65.3336 65.1466 65.0651 65.6015C64.8041 66.0565 64.4386 66.4145 63.9687 66.6756C63.5063 66.9366 62.9805 67.0671 62.3913 67.0671ZM62.3913 66.1274C62.7716 66.1274 63.111 66.0416 63.4093 65.87C63.7151 65.6985 63.9538 65.4561 64.1254 65.1428C64.2969 64.8221 64.3827 64.4529 64.3827 64.0353C64.3827 63.6101 64.2969 63.2447 64.1254 62.9389C63.9538 62.6256 63.7151 62.3832 63.4093 62.2117C63.111 62.0401 62.7716 61.9543 62.3913 61.9543C62.0109 61.9543 61.6715 62.0401 61.3732 62.2117C61.0748 62.3832 60.8362 62.6256 60.6572 62.9389C60.4782 63.2447 60.3887 63.6101 60.3887 64.0353C60.3887 64.4529 60.4782 64.8221 60.6572 65.1428C60.8362 65.4561 61.0748 65.6985 61.3732 65.87C61.6715 66.0416 62.0109 66.1274 62.3913 66.1274ZM66.9532 67V61.0705H67.9825V62.6815L67.8818 62.2788C68.0459 61.8686 68.3218 61.5553 68.7097 61.339C69.0975 61.1227 69.5749 61.0146 70.1417 61.0146V62.055C70.097 62.0476 70.0522 62.0439 70.0075 62.0439C69.9702 62.0439 69.9329 62.0439 69.8956 62.0439C69.3213 62.0439 68.8663 62.2154 68.5307 62.5585C68.1951 62.9016 68.0272 63.3976 68.0272 64.0464V67H66.9532ZM74.6316 61.0146C75.1164 61.0146 75.5415 61.1078 75.907 61.2943C76.2799 61.4807 76.5708 61.7642 76.7796 62.1445C76.9884 62.5249 77.0929 63.006 77.0929 63.5878V67H76.0188V63.7108C76.0188 63.1365 75.8771 62.7039 75.5937 62.413C75.3177 62.1222 74.9262 61.9767 74.419 61.9767C74.0386 61.9767 73.7067 62.0513 73.4233 62.2005C73.1399 62.3496 72.9198 62.5697 72.7632 62.8606C72.614 63.1514 72.5395 63.5132 72.5395 63.9458V67H71.4654V61.0705H72.4947V62.6704L72.3269 62.2452C72.5208 61.8574 72.8192 61.5553 73.2219 61.339C73.6247 61.1227 74.0946 61.0146 74.6316 61.0146ZM82.2416 67V59.1686H85.2959C85.9821 59.1686 86.5676 59.2768 87.0524 59.4931C87.5372 59.7094 87.9101 60.0226 88.1711 60.4328C88.4322 60.843 88.5627 61.3316 88.5627 61.8984C88.5627 62.4653 88.4322 62.9538 88.1711 63.364C87.9101 63.7668 87.5372 64.08 87.0524 64.3038C86.5676 64.5201 85.9821 64.6282 85.2959 64.6282H82.857L83.3604 64.1024V67H82.2416ZM83.3604 64.2143L82.857 63.6549H85.2623C85.9783 63.6549 86.5191 63.502 86.8845 63.1962C87.2575 62.8904 87.4439 62.4578 87.4439 61.8984C87.4439 61.339 87.2575 60.9064 86.8845 60.6006C86.5191 60.2948 85.9783 60.1419 85.2623 60.1419H82.857L83.3604 59.5826V64.2143ZM89.9404 67V61.0705H90.9697V62.6815L90.869 62.2788C91.0331 61.8686 91.3091 61.5553 91.6969 61.339C92.0847 61.1227 92.5621 61.0146 93.1289 61.0146V62.055C93.0842 62.0476 93.0394 62.0439 92.9947 62.0439C92.9574 62.0439 92.9201 62.0439 92.8828 62.0439C92.3085 62.0439 91.8535 62.2154 91.5179 62.5585C91.1823 62.9016 91.0145 63.3976 91.0145 64.0464V67H89.9404ZM96.9376 67.0671C96.341 67.0671 95.8114 66.9366 95.349 66.6756C94.8866 66.4145 94.5211 66.0565 94.2526 65.6015C93.9841 65.1391 93.8498 64.617 93.8498 64.0353C93.8498 63.446 93.9841 62.9239 94.2526 62.469C94.5211 62.014 94.8866 61.6597 95.349 61.4062C95.8114 61.1451 96.341 61.0146 96.9376 61.0146C97.5269 61.0146 98.0527 61.1451 98.5151 61.4062C98.985 61.6597 99.3505 62.014 99.6115 62.469C99.88 62.9165 100.014 63.4386 100.014 64.0353C100.014 64.6245 99.88 65.1466 99.6115 65.6015C99.3505 66.0565 98.985 66.4145 98.5151 66.6756C98.0527 66.9366 97.5269 67.0671 96.9376 67.0671ZM96.9376 66.1274C97.318 66.1274 97.6574 66.0416 97.9557 65.87C98.2615 65.6985 98.5002 65.4561 98.6717 65.1428C98.8433 64.8221 98.9291 64.4529 98.9291 64.0353C98.9291 63.6101 98.8433 63.2447 98.6717 62.9389C98.5002 62.6256 98.2615 62.3832 97.9557 62.2117C97.6574 62.0401 97.318 61.9543 96.9376 61.9543C96.5573 61.9543 96.2179 62.0401 95.9196 62.2117C95.6212 62.3832 95.3826 62.6256 95.2035 62.9389C95.0245 63.2447 94.935 63.6101 94.935 64.0353C94.935 64.4529 95.0245 64.8221 95.2035 65.1428C95.3826 65.4561 95.6212 65.6985 95.9196 65.87C96.2179 66.0416 96.5573 66.1274 96.9376 66.1274ZM104.084 67.0671C103.48 67.0671 102.939 66.9366 102.462 66.6756C101.992 66.4145 101.623 66.0565 101.354 65.6015C101.086 65.1466 100.951 64.6245 100.951 64.0353C100.951 63.446 101.086 62.9239 101.354 62.469C101.623 62.014 101.992 61.6597 102.462 61.4062C102.939 61.1451 103.48 61.0146 104.084 61.0146C104.621 61.0146 105.098 61.1227 105.516 61.339C105.941 61.5479 106.269 61.8611 106.501 62.2788L105.684 62.8046C105.49 62.5137 105.251 62.3012 104.968 62.1669C104.692 62.0252 104.393 61.9543 104.073 61.9543C103.685 61.9543 103.338 62.0401 103.032 62.2117C102.727 62.3832 102.484 62.6256 102.305 62.9389C102.126 63.2447 102.037 63.6101 102.037 64.0353C102.037 64.4604 102.126 64.8296 102.305 65.1428C102.484 65.4561 102.727 65.6985 103.032 65.87C103.338 66.0416 103.685 66.1274 104.073 66.1274C104.393 66.1274 104.692 66.0602 104.968 65.926C105.251 65.7843 105.49 65.568 105.684 65.2771L106.501 65.7917C106.269 66.2019 105.941 66.5189 105.516 66.7427C105.098 66.959 104.621 67.0671 104.084 67.0671ZM110.444 67.0671C109.81 67.0671 109.251 66.9366 108.766 66.6756C108.288 66.4145 107.915 66.0565 107.647 65.6015C107.386 65.1466 107.255 64.6245 107.255 64.0353C107.255 63.446 107.382 62.9239 107.636 62.469C107.897 62.014 108.251 61.6597 108.699 61.4062C109.154 61.1451 109.664 61.0146 110.231 61.0146C110.806 61.0146 111.313 61.1414 111.753 61.395C112.193 61.6486 112.536 62.0066 112.782 62.469C113.036 62.9239 113.163 63.4572 113.163 64.0688C113.163 64.1136 113.159 64.1658 113.151 64.2255C113.151 64.2851 113.148 64.3411 113.14 64.3933H108.094V63.6213H112.581L112.144 63.8898C112.152 63.5094 112.074 63.1701 111.909 62.8717C111.745 62.5734 111.518 62.3422 111.227 62.1781C110.944 62.0066 110.612 61.9208 110.231 61.9208C109.858 61.9208 109.527 62.0066 109.236 62.1781C108.945 62.3422 108.717 62.5771 108.553 62.8829C108.389 63.1813 108.307 63.5244 108.307 63.9122V64.0912C108.307 64.4865 108.397 64.8408 108.576 65.154C108.762 65.4598 109.019 65.6985 109.348 65.87C109.676 66.0416 110.052 66.1274 110.477 66.1274C110.828 66.1274 111.145 66.0677 111.428 65.9484C111.719 65.829 111.973 65.65 112.189 65.4113L112.782 66.105C112.514 66.4182 112.178 66.6569 111.775 66.821C111.38 66.9851 110.936 67.0671 110.444 67.0671ZM116.354 67.0671C115.862 67.0671 115.392 67 114.945 66.8657C114.505 66.7315 114.158 66.5674 113.904 66.3735L114.352 65.5232C114.605 65.6948 114.919 65.8402 115.292 65.9595C115.665 66.0789 116.045 66.1385 116.433 66.1385C116.932 66.1385 117.29 66.0677 117.507 65.926C117.731 65.7843 117.842 65.5866 117.842 65.333C117.842 65.1466 117.775 65.0011 117.641 64.8967C117.507 64.7923 117.328 64.714 117.104 64.6618C116.888 64.6096 116.645 64.5648 116.377 64.5275C116.108 64.4828 115.84 64.4306 115.571 64.3709C115.303 64.3038 115.057 64.2143 114.833 64.1024C114.609 63.9831 114.43 63.8227 114.296 63.6213C114.162 63.4125 114.094 63.1365 114.094 62.7934C114.094 62.4354 114.195 62.1222 114.397 61.8537C114.598 61.5852 114.881 61.38 115.247 61.2383C115.62 61.0892 116.06 61.0146 116.567 61.0146C116.955 61.0146 117.346 61.0631 117.742 61.16C118.144 61.2495 118.473 61.38 118.726 61.5516L118.268 62.4019C117.999 62.2229 117.719 62.0998 117.428 62.0327C117.138 61.9655 116.847 61.932 116.556 61.932C116.086 61.932 115.735 62.0103 115.504 62.1669C115.273 62.3161 115.157 62.51 115.157 62.7487C115.157 62.9501 115.224 63.1067 115.359 63.2186C115.5 63.323 115.679 63.405 115.896 63.4647C116.119 63.5244 116.366 63.5766 116.634 63.6213C116.903 63.6586 117.171 63.7108 117.44 63.7779C117.708 63.8376 117.951 63.9234 118.167 64.0353C118.391 64.1471 118.57 64.3038 118.704 64.5051C118.846 64.7065 118.916 64.975 118.916 65.3107C118.916 65.6687 118.812 65.9782 118.603 66.2392C118.394 66.5003 118.1 66.7054 117.719 66.8546C117.339 66.9963 116.884 67.0671 116.354 67.0671ZM121.959 67.0671C121.467 67.0671 120.997 67 120.55 66.8657C120.109 66.7315 119.763 66.5674 119.509 66.3735L119.957 65.5232C120.21 65.6948 120.523 65.8402 120.896 65.9595C121.269 66.0789 121.65 66.1385 122.038 66.1385C122.537 66.1385 122.895 66.0677 123.112 65.926C123.335 65.7843 123.447 65.5866 123.447 65.333C123.447 65.1466 123.38 65.0011 123.246 64.8967C123.112 64.7923 122.933 64.714 122.709 64.6618C122.492 64.6096 122.25 64.5648 121.982 64.5275C121.713 64.4828 121.445 64.4306 121.176 64.3709C120.908 64.3038 120.661 64.2143 120.438 64.1024C120.214 63.9831 120.035 63.8227 119.901 63.6213C119.766 63.4125 119.699 63.1365 119.699 62.7934C119.699 62.4354 119.8 62.1222 120.001 61.8537C120.203 61.5852 120.486 61.38 120.852 61.2383C121.225 61.0892 121.665 61.0146 122.172 61.0146C122.56 61.0146 122.951 61.0631 123.346 61.16C123.749 61.2495 124.077 61.38 124.331 61.5516L123.872 62.4019C123.604 62.2229 123.324 62.0998 123.033 62.0327C122.742 61.9655 122.451 61.932 122.161 61.932C121.691 61.932 121.34 62.0103 121.109 62.1669C120.878 62.3161 120.762 62.51 120.762 62.7487C120.762 62.9501 120.829 63.1067 120.963 63.2186C121.105 63.323 121.284 63.405 121.5 63.4647C121.724 63.5244 121.97 63.5766 122.239 63.6213C122.507 63.6586 122.776 63.7108 123.044 63.7779C123.313 63.8376 123.555 63.9234 123.772 64.0353C123.995 64.1471 124.174 64.3038 124.309 64.5051C124.45 64.7065 124.521 64.975 124.521 65.3107C124.521 65.6687 124.417 65.9782 124.208 66.2392C123.999 66.5003 123.704 66.7054 123.324 66.8546C122.944 66.9963 122.489 67.0671 121.959 67.0671ZM125.863 67V61.0705H126.937V67H125.863ZM126.4 59.9294C126.192 59.9294 126.016 59.8622 125.875 59.728C125.74 59.5937 125.673 59.4297 125.673 59.2357C125.673 59.0344 125.74 58.8665 125.875 58.7323C126.016 58.598 126.192 58.5309 126.4 58.5309C126.609 58.5309 126.781 58.598 126.915 58.7323C127.057 58.8591 127.128 59.0194 127.128 59.2134C127.128 59.4147 127.061 59.5863 126.926 59.728C126.792 59.8622 126.617 59.9294 126.4 59.9294ZM132.154 61.0146C132.639 61.0146 133.064 61.1078 133.43 61.2943C133.803 61.4807 134.093 61.7642 134.302 62.1445C134.511 62.5249 134.616 63.006 134.616 63.5878V67H133.542V63.7108C133.542 63.1365 133.4 62.7039 133.116 62.413C132.84 62.1222 132.449 61.9767 131.942 61.9767C131.561 61.9767 131.229 62.0513 130.946 62.2005C130.663 62.3496 130.443 62.5697 130.286 62.8606C130.137 63.1514 130.062 63.5132 130.062 63.9458V67H128.988V61.0705H130.017V62.6704L129.85 62.2452C130.043 61.8574 130.342 61.5553 130.745 61.339C131.147 61.1227 131.617 61.0146 132.154 61.0146ZM139.199 69.2375C138.654 69.2375 138.125 69.1592 137.61 69.0026C137.103 68.8534 136.689 68.6371 136.368 68.3537L136.883 67.5258C137.159 67.7645 137.498 67.951 137.901 68.0852C138.304 68.2269 138.725 68.2978 139.165 68.2978C139.866 68.2978 140.381 68.1337 140.709 67.8055C141.037 67.4773 141.201 66.9776 141.201 66.3064V65.0533L141.313 63.8786L141.257 62.6927V61.0705H142.275V66.1945C142.275 67.2387 142.014 68.0069 141.492 68.4992C140.97 68.9914 140.206 69.2375 139.199 69.2375ZM139.064 66.7539C138.49 66.7539 137.976 66.6345 137.521 66.3959C137.073 66.1497 136.715 65.8104 136.447 65.3778C136.186 64.9452 136.055 64.4455 136.055 63.8786C136.055 63.3043 136.186 62.8046 136.447 62.3795C136.715 61.9469 137.073 61.6113 137.521 61.3726C137.976 61.1339 138.49 61.0146 139.064 61.0146C139.572 61.0146 140.034 61.119 140.452 61.3278C140.869 61.5292 141.201 61.8425 141.447 62.2676C141.701 62.6927 141.828 63.2297 141.828 63.8786C141.828 64.5201 141.701 65.0533 141.447 65.4785C141.201 65.9036 140.869 66.2243 140.452 66.4406C140.034 66.6495 139.572 66.7539 139.064 66.7539ZM139.188 65.8141C139.583 65.8141 139.933 65.7321 140.239 65.568C140.545 65.4039 140.784 65.1764 140.955 64.8855C141.134 64.5946 141.224 64.259 141.224 63.8786C141.224 63.4983 141.134 63.1626 140.955 62.8717C140.784 62.5809 140.545 62.3571 140.239 62.2005C139.933 62.0364 139.583 61.9543 139.188 61.9543C138.792 61.9543 138.438 62.0364 138.125 62.2005C137.819 62.3571 137.577 62.5809 137.398 62.8717C137.226 63.1626 137.14 63.4983 137.14 63.8786C137.14 64.259 137.226 64.5946 137.398 64.8855C137.577 65.1764 137.819 65.4039 138.125 65.568C138.438 65.7321 138.792 65.8141 139.188 65.8141ZM55.6765 81.0895C55.0798 81.0895 54.5279 80.9925 54.0207 80.7986C53.521 80.5972 53.0846 80.3176 52.7117 79.9595C52.3463 79.5941 52.0591 79.1689 51.8503 78.6841C51.6414 78.1993 51.537 77.6661 51.537 77.0843C51.537 76.5025 51.6414 75.9693 51.8503 75.4845C52.0591 74.9997 52.35 74.5783 52.7229 74.2203C53.0958 73.8548 53.5321 73.5751 54.0319 73.3812C54.539 73.1798 55.091 73.0791 55.6876 73.0791C56.2918 73.0791 56.8474 73.1835 57.3546 73.3924C57.8692 73.5937 58.3056 73.8958 58.6636 74.2986L57.9364 75.0034C57.638 74.6901 57.3024 74.4589 56.9295 74.3098C56.5566 74.1531 56.1575 74.0748 55.7324 74.0748C55.2923 74.0748 54.8821 74.1494 54.5017 74.2986C54.1288 74.4477 53.8044 74.6566 53.5284 74.9251C53.2525 75.1936 53.0362 75.5143 52.8795 75.8872C52.7304 76.2527 52.6558 76.6517 52.6558 77.0843C52.6558 77.5169 52.7304 77.9197 52.8795 78.2926C53.0362 78.658 53.2525 78.975 53.5284 79.2435C53.8044 79.512 54.1288 79.7209 54.5017 79.87C54.8821 80.0192 55.2923 80.0938 55.7324 80.0938C56.1575 80.0938 56.5566 80.0192 56.9295 79.87C57.3024 79.7134 57.638 79.4747 57.9364 79.154L58.6636 79.8589C58.3056 80.2616 57.8692 80.5674 57.3546 80.7762C56.8474 80.9851 56.2881 81.0895 55.6765 81.0895ZM62.3913 81.0671C61.7946 81.0671 61.265 80.9366 60.8026 80.6756C60.3402 80.4145 59.9747 80.0565 59.7062 79.6015C59.4377 79.1391 59.3035 78.617 59.3035 78.0353C59.3035 77.446 59.4377 76.9239 59.7062 76.469C59.9747 76.014 60.3402 75.6597 60.8026 75.4062C61.265 75.1451 61.7946 75.0146 62.3913 75.0146C62.9805 75.0146 63.5063 75.1451 63.9687 75.4062C64.4386 75.6597 64.8041 76.014 65.0651 76.469C65.3336 76.9165 65.4679 77.4386 65.4679 78.0353C65.4679 78.6245 65.3336 79.1466 65.0651 79.6015C64.8041 80.0565 64.4386 80.4145 63.9687 80.6756C63.5063 80.9366 62.9805 81.0671 62.3913 81.0671ZM62.3913 80.1274C62.7716 80.1274 63.111 80.0416 63.4093 79.87C63.7151 79.6985 63.9538 79.4561 64.1254 79.1428C64.2969 78.8221 64.3827 78.4529 64.3827 78.0353C64.3827 77.6101 64.2969 77.2447 64.1254 76.9389C63.9538 76.6256 63.7151 76.3832 63.4093 76.2117C63.111 76.0401 62.7716 75.9543 62.3913 75.9543C62.0109 75.9543 61.6715 76.0401 61.3732 76.2117C61.0748 76.3832 60.8362 76.6256 60.6572 76.9389C60.4782 77.2447 60.3887 77.6101 60.3887 78.0353C60.3887 78.4529 60.4782 78.8221 60.6572 79.1428C60.8362 79.4561 61.0748 79.6985 61.3732 79.87C61.6715 80.0416 62.0109 80.1274 62.3913 80.1274ZM74.3707 75.0146C74.848 75.0146 75.2694 75.1078 75.6349 75.2943C76.0003 75.4807 76.2838 75.7642 76.4851 76.1445C76.694 76.5249 76.7984 77.006 76.7984 77.5878V81H75.7244V77.7108C75.7244 77.1365 75.5901 76.7039 75.3216 76.413C75.0531 76.1222 74.6765 75.9767 74.1917 75.9767C73.8337 75.9767 73.5204 76.0513 73.2519 76.2005C72.9834 76.3496 72.7745 76.5697 72.6254 76.8606C72.4837 77.1514 72.4128 77.5132 72.4128 77.9458V81H71.3388V77.7108C71.3388 77.1365 71.2045 76.7039 70.936 76.413C70.675 76.1222 70.2983 75.9767 69.8061 75.9767C69.4555 75.9767 69.146 76.0513 68.8775 76.2005C68.609 76.3496 68.4002 76.5697 68.251 76.8606C68.1018 77.1514 68.0272 77.5132 68.0272 77.9458V81H66.9532V75.0705H67.9825V76.648L67.8147 76.2452C68.0011 75.8574 68.2883 75.5553 68.6761 75.339C69.064 75.1227 69.5152 75.0146 70.0298 75.0146C70.5967 75.0146 71.0852 75.1563 71.4954 75.4397C71.9056 75.7157 72.1741 76.1371 72.3009 76.7039L71.8646 76.5249C72.0436 76.07 72.3569 75.7045 72.8044 75.4285C73.2519 75.1526 73.774 75.0146 74.3707 75.0146ZM81.9183 81.0671C81.4261 81.0671 80.9748 80.9552 80.5646 80.7315C80.1619 80.5003 79.8374 80.1609 79.5913 79.7134C79.3526 79.2659 79.2333 78.7065 79.2333 78.0353C79.2333 77.364 79.3489 76.8046 79.5801 76.3571C79.8188 75.9096 80.1395 75.574 80.5422 75.3502C80.9525 75.1265 81.4112 75.0146 81.9183 75.0146C82.5001 75.0146 83.0147 75.1414 83.4622 75.395C83.9097 75.6486 84.264 76.0028 84.5251 76.4578C84.7861 76.9053 84.9166 77.4311 84.9166 78.0353C84.9166 78.6394 84.7861 79.1689 84.5251 79.6239C84.264 80.0789 83.9097 80.4332 83.4622 80.6867C83.0147 80.9403 82.5001 81.0671 81.9183 81.0671ZM78.7746 83.1704V75.0705H79.8039V76.6704L79.7367 78.0464L79.8486 79.4225V83.1704H78.7746ZM81.8288 80.1274C82.2092 80.1274 82.5486 80.0416 82.8469 79.87C83.1527 79.6985 83.3914 79.4561 83.5629 79.1428C83.7419 78.8221 83.8314 78.4529 83.8314 78.0353C83.8314 77.6101 83.7419 77.2447 83.5629 76.9389C83.3914 76.6256 83.1527 76.3832 82.8469 76.2117C82.5486 76.0401 82.2092 75.9543 81.8288 75.9543C81.4559 75.9543 81.1165 76.0401 80.8108 76.2117C80.5124 76.3832 80.2737 76.6256 80.0947 76.9389C79.9232 77.2447 79.8374 77.6101 79.8374 78.0353C79.8374 78.4529 79.9232 78.8221 80.0947 79.1428C80.2737 79.4561 80.5124 79.6985 80.8108 79.87C81.1165 80.0416 81.4559 80.1274 81.8288 80.1274ZM90.0267 81V79.747L89.9708 79.512V77.3752C89.9708 76.9202 89.8365 76.5697 89.568 76.3235C89.307 76.07 88.9117 75.9432 88.3821 75.9432C88.0316 75.9432 87.6885 76.0028 87.3528 76.1222C87.0172 76.234 86.7338 76.3869 86.5026 76.5809L86.0551 75.7753C86.3609 75.5292 86.7263 75.3428 87.1515 75.216C87.5841 75.0817 88.0353 75.0146 88.5052 75.0146C89.3182 75.0146 89.9447 75.2122 90.3847 75.6075C90.8248 76.0028 91.0448 76.607 91.0448 77.4199V81H90.0267ZM88.08 81.0671C87.64 81.0671 87.2522 80.9925 86.9165 80.8434C86.5884 80.6942 86.3348 80.4891 86.1558 80.228C85.9768 79.9595 85.8873 79.6575 85.8873 79.3218C85.8873 79.0011 85.9618 78.7103 86.111 78.4492C86.2676 78.1882 86.5175 77.9793 86.8606 77.8227C87.2111 77.6661 87.681 77.5878 88.2702 77.5878H90.1498V78.3597H88.315C87.778 78.3597 87.4162 78.4492 87.2298 78.6282C87.0433 78.8072 86.9501 79.0235 86.9501 79.2771C86.9501 79.568 87.0657 79.8029 87.2969 79.9819C87.5281 80.1535 87.8488 80.2392 88.259 80.2392C88.6618 80.2392 89.0124 80.1497 89.3107 79.9707C89.6165 79.7917 89.8365 79.5307 89.9708 79.1876L90.1833 79.926C90.0416 80.2765 89.7918 80.5562 89.4338 80.7651C89.0758 80.9664 88.6245 81.0671 88.08 81.0671ZM96.1985 75.0146C96.6833 75.0146 97.1084 75.1078 97.4739 75.2943C97.8468 75.4807 98.1377 75.7642 98.3465 76.1445C98.5553 76.5249 98.6598 77.006 98.6598 77.5878V81H97.5857V77.7108C97.5857 77.1365 97.444 76.7039 97.1606 76.413C96.8846 76.1222 96.4931 75.9767 95.9859 75.9767C95.6055 75.9767 95.2736 76.0513 94.9902 76.2005C94.7068 76.3496 94.4868 76.5697 94.3301 76.8606C94.181 77.1514 94.1064 77.5132 94.1064 77.9458V81H93.0324V75.0705H94.0616V76.6704L93.8938 76.2452C94.0877 75.8574 94.3861 75.5553 94.7888 75.339C95.1916 75.1227 95.6615 75.0146 96.1985 75.0146ZM100.795 83.2375C100.512 83.2375 100.236 83.1891 99.9676 83.0921C99.6991 83.0026 99.4679 82.8683 99.2739 82.6893L99.7326 81.8838C99.8818 82.0255 100.046 82.1337 100.225 82.2083C100.404 82.2829 100.594 82.3201 100.795 82.3201C101.057 82.3201 101.273 82.253 101.444 82.1188C101.616 81.9845 101.776 81.7458 101.925 81.4028L102.295 80.5861L102.407 80.4518L104.734 75.0705H105.785L102.91 81.5929C102.738 82.0106 102.544 82.3388 102.328 82.5775C102.119 82.8161 101.888 82.984 101.635 83.0809C101.381 83.1853 101.101 83.2375 100.795 83.2375ZM102.205 81.1902L99.4977 75.0705H100.616L102.921 80.3511L102.205 81.1902Z" fill="black"/>
</svg>
