<svg width="62" height="64" viewBox="0 0 62 64" fill="none" xmlns="http://www.w3.org/2000/svg">
<g clip-path="url(#clip0_33_742)">
<path d="M51.8283 46.9109C51.2122 51.0186 49.1395 54.7732 45.9923 57.4835C42.845 60.1939 38.8243 61.6865 34.6709 61.6865H23.3646C19.2112 61.6865 15.1905 60.1939 12.0432 57.4835C8.89599 54.7732 6.82332 51.0182 6.20721 46.9109L2.50583 22.2362C1.75599 17.2366 3.21794 12.172 6.51711 8.34123C9.81629 4.5105 14.6081 2.31319 19.6636 2.31319H38.3723C43.4278 2.31319 48.2196 4.51017 51.5188 8.34123C54.8179 12.172 56.2799 17.2366 55.53 22.2362L55.3377 23.518H57.6768L57.8176 22.5795C58.6675 16.9132 57.0109 11.1735 53.2718 6.83178C49.5323 2.49004 44.1019 0 38.3719 0H19.6633C13.9337 0 8.50322 2.49004 4.76411 6.83178C1.02501 11.1732 -0.631649 16.9132 0.218239 22.5795L3.91928 47.2542C4.61758 51.9095 6.96648 56.1647 10.5335 59.2365C14.1004 62.3083 18.6571 64 23.3643 64H34.6706C39.3778 64 43.9344 62.3083 47.5014 59.2365C51.0684 56.1647 53.4173 51.9092 54.1156 47.2542L55.1315 40.482H52.7924L51.828 46.9109H51.8283Z" fill="black"/>
<path d="M39.8286 43.4524C38.2888 45.2401 36.0528 46.2654 33.6938 46.2654H24.3393C21.9799 46.2654 19.7439 45.2401 18.2044 43.4524C16.6647 41.6647 15.9825 39.3013 16.3325 36.9679L18.1832 24.6305C18.4705 22.7138 19.438 20.9615 20.9067 19.6966C22.3754 18.4317 24.2517 17.7351 26.1899 17.7351H31.8434C33.7817 17.7351 35.658 18.4317 37.1266 19.6966C38.3056 20.7119 39.1606 22.0418 39.6012 23.5182H41.9905C41.4974 21.3566 40.3261 19.3988 38.6364 17.9436C36.748 16.3172 34.3358 15.4219 31.8437 15.4219H26.1903C23.6982 15.4219 21.2856 16.3176 19.3976 17.9436C17.5092 19.5699 16.2658 21.8225 15.8959 24.2873L14.0453 36.6246C13.5952 39.6243 14.4724 42.6631 16.4518 44.9618C18.4311 47.2602 21.3062 48.5786 24.3396 48.5786H33.6941C36.7275 48.5786 39.6022 47.2605 41.5819 44.9618C42.7036 43.6592 43.4707 42.1184 43.8432 40.4823H41.4519C41.1299 41.5629 40.5828 42.5769 39.8289 43.4524H39.8286Z" fill="black"/>
<path d="M47.1385 41.2531C47.1385 48.2684 41.4312 53.9758 34.4158 53.9758H23.6206C16.6052 53.9758 10.8979 48.2684 10.8979 41.2531V22.7472C10.8979 15.7318 16.6052 10.0245 23.6206 10.0245H34.4158C41.4312 10.0245 47.1385 15.7318 47.1385 22.7472V23.5183H49.4517V22.7472C49.4517 14.4561 42.7065 7.71094 34.4155 7.71094H23.6202C15.3292 7.71094 8.58398 14.4561 8.58398 22.7472V41.2531C8.58398 49.5441 15.3292 56.2893 23.6202 56.2893H34.4155C42.7065 56.2893 49.4517 49.5441 49.4517 41.2531V40.482H47.1385V41.2531Z" fill="black"/>
<path d="M26.9966 31.93C26.9966 32.4029 27.0947 32.8486 27.2911 33.2673C27.4874 33.686 27.7522 34.0522 28.0854 34.3655C28.4185 34.6787 28.8052 34.9253 29.2458 35.1045C29.6861 35.2841 30.1533 35.3737 30.6472 35.3737C31.0278 35.3737 31.3866 35.3181 31.7227 35.2069C32.0589 35.0958 32.3729 34.9462 32.6646 34.7582C32.9799 34.5531 33.337 34.4507 33.7358 34.4507C34.045 34.4507 34.3101 34.4978 34.5304 34.5918C34.7504 34.6858 34.9529 34.8212 35.1375 34.9977L35.8964 35.724C35.5272 36.0999 35.1361 36.4391 34.7224 36.741C34.3088 37.0431 33.8803 37.2995 33.437 37.51C32.9937 37.7209 32.5369 37.8832 32.0667 37.9971C31.5964 38.111 31.1235 38.1679 30.6475 38.1679C30.0462 38.1679 29.4661 38.0938 28.907 37.9459C28.3474 37.7977 27.8236 37.5885 27.3359 37.3177C26.8478 37.0472 26.4045 36.7224 26.006 36.3435C25.6071 35.9645 25.2652 35.5444 24.9796 35.083C24.6939 34.6215 24.4722 34.1246 24.3146 33.5917C24.1569 33.0591 24.0781 32.505 24.0781 31.9296C24.0781 31.3543 24.1569 30.8002 24.3146 30.2676C24.4722 29.735 24.6939 29.2378 24.9796 28.7763C25.2652 28.3148 25.6075 27.8948 26.006 27.5158C26.4045 27.1369 26.8481 26.8121 27.3359 26.5416C27.8236 26.2711 28.3474 26.0619 28.907 25.9137C29.4661 25.7655 30.0465 25.6914 30.6475 25.6914C31.1235 25.6914 31.5964 25.7483 32.0667 25.8622C32.5366 25.9764 32.9934 26.1384 33.437 26.3493C33.8803 26.5602 34.3088 26.8165 34.7224 27.1183C35.1361 27.4205 35.5272 27.7594 35.8964 28.1353L35.1375 28.8616C34.9589 29.0323 34.7538 29.1678 34.5217 29.2675C34.2896 29.3672 34.0275 29.417 33.7361 29.417C33.3434 29.417 32.9863 29.3116 32.6649 29.1007C32.3671 28.907 32.0505 28.7561 31.7143 28.6477C31.3781 28.5395 31.0224 28.4853 30.6475 28.4853C30.1533 28.4853 29.6864 28.5766 29.2462 28.7588C28.8056 28.9411 28.4189 29.1876 28.0857 29.4979C27.7522 29.8085 27.4878 30.1729 27.2914 30.5917C27.095 31.0104 26.997 31.456 26.997 31.929L26.9966 31.93Z" fill="black"/>
<path d="M41.3505 38.0582H38.4316V25.8125H43.5913C44.1862 25.8125 44.7474 25.9277 45.2739 26.1585C45.8004 26.3892 46.2588 26.6998 46.6486 27.0899C47.0383 27.4803 47.3462 27.933 47.5726 28.4487C47.7986 28.9645 47.9118 29.5041 47.9118 30.068C47.9118 30.6319 47.7986 31.1719 47.5726 31.6873C47.3462 32.203 47.0383 32.6557 46.6486 33.0462C46.2588 33.4366 45.8007 33.7468 45.2739 33.9776C44.7474 34.2083 44.1862 34.3235 43.5913 34.3235H41.3508V38.0579L41.3505 38.0582ZM43.6 31.5209C43.7786 31.5209 43.951 31.4781 44.1178 31.3925C44.2842 31.307 44.4317 31.1961 44.5597 31.0594C44.6877 30.9226 44.7901 30.7673 44.8676 30.5935C44.9448 30.4197 44.9835 30.2445 44.9835 30.068C44.9835 29.8915 44.9448 29.7163 44.8676 29.5425C44.7901 29.3687 44.6874 29.2134 44.5597 29.0766C44.4317 28.9399 44.2845 28.8287 44.1178 28.7435C43.951 28.6579 43.7786 28.6151 43.6 28.6151H41.3505V31.5205H43.6V31.5209Z" fill="black"/>
<path d="M52.4732 31.93C52.4732 32.4029 52.5712 32.8486 52.7676 33.2673C52.964 33.686 53.2288 34.0522 53.5619 34.3655C53.8951 34.6787 54.2818 34.9253 54.7224 35.1045C55.1627 35.2841 55.6299 35.3737 56.1237 35.3737C56.5044 35.3737 56.8631 35.3181 57.1993 35.2069C57.5355 35.0958 57.8494 34.9462 58.1411 34.7582C58.4564 34.5531 58.8135 34.4507 59.2124 34.4507C59.5216 34.4507 59.7867 34.4978 60.007 34.5918C60.227 34.6858 60.4294 34.8212 60.614 34.9977L61.373 35.724C61.0038 36.0999 60.6127 36.4391 60.199 36.741C59.7853 37.0431 59.3569 37.2995 58.9136 37.51C58.4703 37.7209 58.0135 37.8832 57.5432 37.9971C57.073 38.111 56.6 38.1679 56.1241 38.1679C55.5228 38.1679 54.9427 38.0938 54.3835 37.9459C53.824 37.7977 53.3002 37.5885 52.8124 37.3177C52.3243 37.0472 51.881 36.7224 51.4825 36.3435C51.0837 35.9645 50.7418 35.5444 50.4561 35.083C50.1705 34.6215 49.9488 34.1246 49.7912 33.5917C49.6335 33.0591 49.5547 32.505 49.5547 31.9296C49.5547 31.3543 49.6335 30.8002 49.7912 30.2676C49.9488 29.735 50.1705 29.2378 50.4561 28.7763C50.7418 28.3148 51.084 27.8948 51.4825 27.5158C51.881 27.1369 52.3247 26.8121 52.8124 26.5416C53.3002 26.2711 53.824 26.0619 54.3835 25.9137C54.9427 25.7655 55.5231 25.6914 56.1241 25.6914C56.6 25.6914 57.073 25.7483 57.5432 25.8622C58.0131 25.9764 58.4699 26.1384 58.9136 26.3493C59.3569 26.5602 59.7853 26.8165 60.199 27.1183C60.6127 27.4205 61.0038 27.7594 61.373 28.1353L60.614 28.8616C60.4355 29.0323 60.2303 29.1678 59.9982 29.2675C59.7661 29.3672 59.5041 29.417 59.2127 29.417C58.8199 29.417 58.4628 29.3116 58.1415 29.1007C57.8437 28.907 57.5271 28.7561 57.1909 28.6477C56.8547 28.5395 56.499 28.4853 56.1241 28.4853C55.6299 28.4853 55.163 28.5766 54.7227 28.7588C54.2821 28.9411 53.8954 29.1876 53.5623 29.4979C53.2288 29.8085 52.9643 30.1729 52.768 30.5917C52.5716 31.0104 52.4735 31.456 52.4735 31.929L52.4732 31.93Z" fill="black"/>
</g>
<defs>
<clipPath id="clip0_33_742">
<rect width="61.3718" height="64" fill="white"/>
</clipPath>
</defs>
</svg>
